<svg xmlns="http://www.w3.org/2000/svg" xmlns:xlink="http://www.w3.org/1999/xlink" xmlns:lucid="lucid" width="780" height="560"><g transform="translate(-80 -240)" lucid:page-tab-id="0_0"><path d="M100 326c0-3.3 2.7-6 6-6h568c3.3 0 6 2.7 6 6v448c0 3.3-2.7 6-6 6H106c-3.3 0-6-2.7-6-6z" fill="#fff"/><path d="M116.46 320h8.97m5.98 0h8.98m5.98 0h8.97m5.98 0h8.97m5.98 0h8.97m5.98 0h8.97m5.98 0h8.97m5.97 0h8.96m5.98 0H245m6 0h8.96m5.98 0h8.97m5.98 0h8.97m5.98 0h8.97m5.98 0h8.97m5.98 0h8.96m5.97 0h8.97m5.98 0h8.97m5.97 0h8.97m5.98 0h8.96m5.98 0h8.97m5.98 0h8.98m5.98 0h8.97m5.98 0h8.97m5.98 0h8.97m5.98 0h8.97m5.98 0h8.97m5.97 0h8.96m5.98 0H529m6 0h8.96m5.98 0h8.97m5.98 0h8.97m5.98 0h8.97m5.98 0h8.97m5.98 0h8.96m5.97 0h8.97m5.98 0h8.97m5.97 0h8.97m5.98 0H674l3.03.82 2.15 2.15.82 3.03v4.48m0 5.97v8.96m0 6v8.95m0 5.97v8.96m0 5.97v8.96m0 6v8.95m0 5.97v8.96m0 5.97V435m0 6v8.95m0 5.97v8.96m0 5.97v8.96m0 6v8.95m0 5.97v8.96m0 5.97v8.96m0 6v8.95m0 5.97v8.96m0 5.97v8.96m0 6v8.95m0 5.97v8.96m0 5.97v8.96m0 6v8.95m0 5.97v8.96m0 5.97V659m0 6v8.95m0 5.97v8.96m0 5.97v8.96m0 6v8.95m0 5.97v8.96m0 5.97v8.96m0 6v8.95m0 5.97V774l-.82 3.03-2.15 2.15-3.03.82h-4.48m-5.98 0h-8.97m-5.98 0h-8.98m-5.98 0h-8.97m-5.98 0h-8.97m-5.98 0h-8.97m-5.98 0h-8.97m-5.98 0h-8.97m-5.97 0h-8.96m-5.98 0H535m-6 0h-8.96m-5.98 0h-8.97m-5.98 0h-8.97m-5.98 0h-8.97m-5.98 0h-8.97m-5.98 0h-8.96m-5.97 0h-8.97m-5.98 0h-8.97m-5.97 0h-8.97m-5.98 0h-8.96m-5.98 0h-8.97m-5.98 0h-8.98m-5.98 0h-8.97m-5.98 0h-8.97m-5.98 0h-8.97m-5.98 0h-8.97m-5.98 0h-8.97m-5.97 0h-8.96m-5.98 0H251m-6 0h-8.96m-5.98 0h-8.97m-5.98 0h-8.97m-5.98 0h-8.97m-5.98 0h-8.97m-5.98 0h-8.96m-5.97 0h-8.97m-5.98 0h-8.97m-5.97 0h-8.97m-5.98 0H106l-3.03-.82-2.15-2.15L100 774v-4.48m0-5.97v-8.96m0-6v-8.95m0-5.97v-8.96m0-5.97v-8.96m0-6v-8.95m0-5.97v-8.96m0-5.97V665m0-6v-8.95m0-5.97v-8.96m0-5.97v-8.96m0-6v-8.95m0-5.97v-8.96m0-5.97v-8.96m0-6v-8.95m0-5.97v-8.96m0-5.97v-8.96m0-6v-8.95m0-5.97v-8.96m0-5.97v-8.96m0-6v-8.95m0-5.97v-8.96m0-5.97V441m0-6v-8.95m0-5.97v-8.96m0-5.97v-8.96m0-6v-8.95m0-5.97v-8.96m0-5.97v-8.96m0-6v-8.95m0-5.97V326l.82-3.03 2.15-2.15L106 320h4.48" stroke="#5e5e5e" stroke-width="3" fill="none"/><path d="M280 346c0-3.3 2.7-6 6-6h368c3.3 0 6 2.7 6 6v413c0 3.3-2.7 6-6 6H286c-3.3 0-6-2.7-6-6z" stroke="#5e5e5e" stroke-width="3" fill="#fff9e6"/><path d="M620 588c0 6.63-26.86 12-60 12s-60-5.37-60-12v-96c0-6.63 26.86-12 60-12s60 5.37 60 12z" stroke="#5e5e5e" stroke-width="3" fill="#ffdf71"/><path d="M620 492c0 6.63-26.86 12-60 12s-60-5.37-60-12" stroke="#5e5e5e" stroke-width="3" fill="none"/><use xlink:href="#a" transform="matrix(1,0,0,1,505,509) translate(1.7500000000000142 48.24999999999999)"/><use xlink:href="#b" transform="matrix(1,0,0,1,505,509) translate(49.47222222222223 48.24999999999999)"/><path d="M250 266c0-3.3 2.7-6 6-6h228c3.3 0 6 2.7 6 6v48c0 3.3-2.7 6-6 6H256c-3.3 0-6-2.7-6-6z" stroke="#000" stroke-opacity="0" stroke-width="3" fill="#fff" fill-opacity="0"/><use xlink:href="#c" transform="matrix(1,0,0,1,255.00000000000006,265) translate(28.17283950617285 29.36111111111111)"/><use xlink:href="#d" transform="matrix(1,0,0,1,255.00000000000006,265) translate(132.89506172839506 29.36111111111111)"/><path d="M280 696c0-3.3 2.7-6 6-6h108c3.3 0 6 2.7 6 6v78c0 3.3-2.7 6-6 6H286c-3.3 0-6-2.7-6-6z" stroke="#000" stroke-opacity="0" stroke-width="3" fill="#fff" fill-opacity="0"/><use xlink:href="#e" transform="matrix(1,0,0,1,285,695) translate(13.24691358024694 36.388888888888886)"/><use xlink:href="#f" transform="matrix(1,0,0,1,285,695) translate(42.84567901234569 36.388888888888886)"/><use xlink:href="#g" transform="matrix(1,0,0,1,285,695) translate(79.23456790123456 36.388888888888886)"/><use xlink:href="#h" transform="matrix(1,0,0,1,285,695) translate(24.666666666666682 49.722222222222214)"/><use xlink:href="#i" transform="matrix(1,0,0,1,285,695) translate(64.72839506172839 49.722222222222214)"/><path d="M120 646c0-3.3 2.7-6 6-6h128c3.3 0 6 2.7 6 6v113c0 3.3-2.7 6-6 6H126c-3.3 0-6-2.7-6-6z" stroke="#5e5e5e" stroke-width="3" fill="#fff9e6"/><use xlink:href="#j" transform="matrix(1,0,0,1,125,645) translate(33.36111111111112 62.71874999999999)"/><path d="M120 493.5c0-3.3 2.7-6 6-6h128c3.3 0 6 2.7 6 6v113c0 3.3-2.7 6-6 6H126c-3.3 0-6-2.7-6-6z" stroke="#5e5e5e" stroke-width="3" fill="#fff9e6"/><use xlink:href="#k" transform="matrix(1,0,0,1,125,492.5) translate(29.527777777777786 62.71874999999999)"/><path d="M120 346c0-3.3 2.7-6 6-6h128c3.3 0 6 2.7 6 6v113c0 3.3-2.7 6-6 6H126c-3.3 0-6-2.7-6-6z" stroke="#5e5e5e" stroke-width="3" fill="#fff9e6"/><use xlink:href="#l" transform="matrix(1,0,0,1,125,345) translate(12.861111111111114 62.71874999999999)"/><path d="M340 386c0-3.3 2.7-6 6-6h108c3.3 0 6 2.7 6 6v108c0 3.3-2.7 6-6 6H346c-3.3 0-6-2.7-6-6z" stroke="#5e5e5e" stroke-width="3" fill="#ffdf71"/><use xlink:href="#m" transform="matrix(1,0,0,1,345,385) translate(27.77777777777779 60.68749999999999)"/><path d="M340 586c0-3.3 2.7-6 6-6h108c3.3 0 6 2.7 6 6v108c0 3.3-2.7 6-6 6H346c-3.3 0-6-2.7-6-6z" stroke="#5e5e5e" stroke-width="3" fill="#ffdf71"/><use xlink:href="#m" transform="matrix(1,0,0,1,345,585) translate(27.77777777777779 60.68749999999999)"/><path d="M262.5 702.5H294c3.3 0 6-2.7 6-6V646c0-3.3 2.7-6 6-6h14" stroke="#5e5e5e" stroke-width="2" fill="none"/><path d="M262.53 703.5h-1.03v-2h1.03z" fill="#5e5e5e"/><path d="M335.26 640L321 644.64v-9.28z" stroke="#5e5e5e" stroke-width="2" fill="#5e5e5e"/><path d="M262.5 550H294c3.3 0 6 2.7 6 6v78c0 3.3 2.7 6 6 6h14" stroke="#5e5e5e" stroke-width="2" fill="none"/><path d="M262.53 551h-1.03v-2h1.03z" fill="#5e5e5e"/><path d="M335.26 640L321 644.64v-9.28z" stroke="#5e5e5e" stroke-width="2" fill="#5e5e5e"/><path d="M462.5 640H554c3.3 0 6-2.7 6-6v-14" stroke="#5e5e5e" stroke-width="2" fill="none"/><path d="M462.53 641h-1.03v-2h1.03z" fill="#5e5e5e"/><path d="M560 604.74l4.64 14.26h-9.28z" stroke="#5e5e5e" stroke-width="2" fill="#5e5e5e"/><path d="M560 460v-8c0-3.3-2.7-6-6-6h-74" stroke="#5e5e5e" stroke-width="2" fill="none"/><path d="M560 475.26L555.36 461h9.28zM464.74 446l14.26-4.64v9.27z" stroke="#5e5e5e" stroke-width="2" fill="#5e5e5e"/><path d="M740 516c0-3.3 2.7-6 6-6h88c3.3 0 6 2.7 6 6v48c0 3.3-2.7 6-6 6h-88c-3.3 0-6-2.7-6-6z" stroke="#000" stroke-opacity="0" stroke-width="3" fill="#fff" fill-opacity="0"/><use xlink:href="#n" transform="matrix(1,0,0,1,745,515) translate(34.47222222222223 15.999999999999993)"/><use xlink:href="#o" transform="matrix(1,0,0,1,745,515) translate(8.916666666666686 39.999999999999986)"/><path d="M622.5 540h99" stroke="#5e5e5e" stroke-width="2" fill="none"/><path d="M622.53 541h-1.03v-2h1.03z" fill="#5e5e5e"/><path d="M736.76 540l-14.26 4.64v-9.28z" stroke="#5e5e5e" stroke-width="2" fill="#5e5e5e"/><path d="M480 626c0-3.3 2.7-6 6-6h108c3.3 0 6 2.7 6 6v78c0 3.3-2.7 6-6 6H486c-3.3 0-6-2.7-6-6z" stroke="#000" stroke-opacity="0" stroke-width="3" fill="#fff" fill-opacity="0"/><use xlink:href="#p" transform="matrix(1,0,0,1,485,625) translate(5.885802469135832 36.388888888888886)"/><use xlink:href="#q" transform="matrix(1,0,0,1,485,625) translate(45.33024691358026 36.388888888888886)"/><use xlink:href="#r" transform="matrix(1,0,0,1,485,625) translate(21.87345679012347 49.722222222222214)"/><use xlink:href="#s" transform="matrix(1,0,0,1,485,625) translate(43.4783950617284 49.722222222222214)"/><use xlink:href="#t" transform="matrix(1,0,0,1,485,625) translate(61.966049382716044 49.722222222222214)"/><path d="M262.5 402.5H294c3.3 0 6 2.7 6 6V434c0 3.3 2.7 6 6 6h14" stroke="#5e5e5e" stroke-width="2" fill="none"/><path d="M262.53 403.5h-1.03v-2h1.03z" fill="#5e5e5e"/><path d="M335.26 440L321 444.64v-9.28z" stroke="#5e5e5e" stroke-width="2" fill="#5e5e5e"/><path d="M480 376c0-3.3 2.7-6 6-6h108c3.3 0 6 2.7 6 6v78c0 3.3-2.7 6-6 6H486c-3.3 0-6-2.7-6-6z" stroke="#000" stroke-opacity="0" stroke-width="3" fill="#fff" fill-opacity="0"/><g><use xlink:href="#u" transform="matrix(1,0,0,1,485,375) translate(0.2993827160494149 28.888888888888886)"/><use xlink:href="#v" transform="matrix(1,0,0,1,485,375) translate(52.70679012345679 28.888888888888886)"/><use xlink:href="#s" transform="matrix(1,0,0,1,485,375) translate(65.05246913580245 28.888888888888886)"/><use xlink:href="#w" transform="matrix(1,0,0,1,485,375) translate(83.5401234567901 28.888888888888886)"/><use xlink:href="#x" transform="matrix(1,0,0,1,485,375) translate(5.253086419753103 42.222222222222214)"/><use xlink:href="#y" transform="matrix(1,0,0,1,485,375) translate(26.858024691358032 42.222222222222214)"/><use xlink:href="#s" transform="matrix(1,0,0,1,485,375) translate(65.0679012345679 42.222222222222214)"/><use xlink:href="#z" transform="matrix(1,0,0,1,485,375) translate(83.55555555555554 42.222222222222214)"/><use xlink:href="#A" transform="matrix(1,0,0,1,485,375) translate(37.62962962962964 55.55555555555554)"/></g><path d="M280 326c0-3.3 2.7-6 6-6h108c3.3 0 6 2.7 6 6v78c0 3.3-2.7 6-6 6H286c-3.3 0-6-2.7-6-6z" stroke="#000" stroke-opacity="0" stroke-width="3" fill="#fff" fill-opacity="0"/><g><use xlink:href="#e" transform="matrix(1,0,0,1,285,325) translate(14.790123456790141 41.388888888888886)"/><use xlink:href="#B" transform="matrix(1,0,0,1,285,325) translate(44.38888888888889 41.388888888888886)"/><use xlink:href="#C" transform="matrix(1,0,0,1,285,325) translate(74.60493827160494 41.388888888888886)"/></g><defs><path fill="#333" d="M30-248c118-7 216 8 213 122C240-48 200 0 122 0H30v-248zM63-27c89 8 146-16 146-99s-60-101-146-95v194" id="D"/><path fill="#333" d="M141-36C126-15 110 5 73 4 37 3 15-17 15-53c-1-64 63-63 125-63 3-35-9-54-41-54-24 1-41 7-42 31l-33-3c5-37 33-52 76-52 45 0 72 20 72 64v82c-1 20 7 32 28 27v20c-31 9-61-2-59-35zM48-53c0 20 12 33 32 33 41-3 63-29 60-74-43 2-92-5-92 41" id="E"/><path fill="#333" d="M59-47c-2 24 18 29 38 22v24C64 9 27 4 27-40v-127H5v-23h24l9-43h21v43h35v23H59v120" id="F"/><g id="a"><use transform="matrix(0.05555555555555554,0,0,0.05555555555555554,0,0)" xlink:href="#D"/><use transform="matrix(0.05555555555555554,0,0,0.05555555555555554,14.388888888888884,0)" xlink:href="#E"/><use transform="matrix(0.05555555555555554,0,0,0.05555555555555554,25.499999999999993,0)" xlink:href="#F"/><use transform="matrix(0.05555555555555554,0,0,0.05555555555555554,31.055555555555546,0)" xlink:href="#E"/></g><path fill="#333" d="M160-131c35 5 61 23 61 61C221 17 115-2 30 0v-248c76 3 177-17 177 60 0 33-19 50-47 57zm-97-11c50-1 110 9 110-42 0-47-63-36-110-37v79zm0 115c55-2 124 14 124-45 0-56-70-42-124-44v89" id="G"/><path fill="#333" d="M114-163C36-179 61-72 57 0H25l-1-190h30c1 12-1 29 2 39 6-27 23-49 58-41v29" id="H"/><path fill="#333" d="M100-194c62-1 85 37 85 99 1 63-27 99-86 99S16-35 15-95c0-66 28-99 85-99zM99-20c44 1 53-31 53-75 0-43-8-75-51-75s-53 32-53 75 10 74 51 75" id="I"/><path fill="#333" d="M143 0L79-87 56-68V0H24v-261h32v163l83-92h37l-77 82L181 0h-38" id="J"/><path fill="#333" d="M100-194c63 0 86 42 84 106H49c0 40 14 67 53 68 26 1 43-12 49-29l28 8c-11 28-37 45-77 45C44 4 14-33 15-96c1-61 26-98 85-98zm52 81c6-60-76-77-97-28-3 7-6 17-6 28h103" id="K"/><g id="b"><use transform="matrix(0.05555555555555554,0,0,0.05555555555555554,0,0)" xlink:href="#G"/><use transform="matrix(0.05555555555555554,0,0,0.05555555555555554,13.333333333333329,0)" xlink:href="#H"/><use transform="matrix(0.05555555555555554,0,0,0.05555555555555554,19.944444444444436,0)" xlink:href="#I"/><use transform="matrix(0.05555555555555554,0,0,0.05555555555555554,31.055555555555546,0)" xlink:href="#J"/><use transform="matrix(0.05555555555555554,0,0,0.05555555555555554,41.05555555555554,0)" xlink:href="#K"/><use transform="matrix(0.05555555555555554,0,0,0.05555555555555554,52.16666666666665,0)" xlink:href="#H"/></g><path fill="#333" d="M266 0h-40l-56-210L115 0H75L2-248h35L96-30l15-64 43-154h32l59 218 59-218h35" id="L"/><path fill="#333" d="M177-190C167-65 218 103 67 71c-23-6-38-20-44-43l32-5c15 47 100 32 89-28v-30C133-14 115 1 83 1 29 1 15-40 15-95c0-56 16-97 71-98 29-1 48 16 59 35 1-10 0-23 2-32h30zM94-22c36 0 50-32 50-73 0-42-14-75-50-75-39 0-46 34-46 75s6 73 46 73" id="M"/><path fill="#333" d="M24 0v-261h32V0H24" id="N"/><g id="c"><use transform="matrix(0.08024691358024691,0,0,0.08024691358024691,0,0)" xlink:href="#L"/><use transform="matrix(0.08024691358024691,0,0,0.08024691358024691,26.160493827160494,0)" xlink:href="#E"/><use transform="matrix(0.08024691358024691,0,0,0.08024691358024691,42.20987654320987,0)" xlink:href="#M"/><use transform="matrix(0.08024691358024691,0,0,0.08024691358024691,58.25925925925926,0)" xlink:href="#M"/><use transform="matrix(0.08024691358024691,0,0,0.08024691358024691,74.30864197530863,0)" xlink:href="#N"/><use transform="matrix(0.08024691358024691,0,0,0.08024691358024691,80.64814814814814,0)" xlink:href="#K"/></g><path fill="#333" d="M190 0L58-211 59 0H30v-248h39L202-35l-2-213h31V0h-41" id="O"/><path fill="#333" d="M85-194c31 0 48 13 60 33l-1-100h32l1 261h-30c-2-10 0-23-3-31C134-8 116 4 85 4 32 4 16-35 15-94c0-66 23-100 70-100zm9 24c-40 0-46 34-46 75 0 40 6 74 45 74 42 0 51-32 51-76 0-42-9-74-50-73" id="P"/><g id="d"><use transform="matrix(0.08024691358024691,0,0,0.08024691358024691,0,0)" xlink:href="#O"/><use transform="matrix(0.08024691358024691,0,0,0.08024691358024691,20.78395061728395,0)" xlink:href="#I"/><use transform="matrix(0.08024691358024691,0,0,0.08024691358024691,36.83333333333333,0)" xlink:href="#P"/><use transform="matrix(0.08024691358024691,0,0,0.08024691358024691,52.8827160493827,0)" xlink:href="#K"/></g><path fill="#333" d="M249-183c0 48-29 72-75 77L221 0h-36l-43-103H65L45 0H11l48-248c83 2 190-17 190 65zm-34 3c0-55-74-39-127-41l-18 92c63-1 145 13 145-51" id="Q"/><path fill="#333" d="M111-194c62-3 86 47 72 106H45c-7 38 6 69 45 68 27-1 43-14 53-32l24 11C152-15 129 4 87 4 38 3 12-23 12-71c0-70 32-119 99-123zm44 81c14-66-71-72-95-28-4 8-8 17-11 28h106" id="R"/><path fill="#333" d="M165-48c-4 18 1 34 23 27l-3 20c-29 8-62 0-52-35h-2C116-14 99 4 63 4 30 4 8-16 8-49c0-68 71-67 138-67 10-26 0-56-31-54-26 1-42 9-47 31l-32-5c8-67 160-71 144 15-5 28-9 54-15 81zM42-50c3 52 80 24 89-6 7-12 7-24 11-38-47 1-103-4-100 44" id="S"/><path fill="#333" d="M133-28C103 26-5 8 13-77c13-62 24-115 90-117 29-1 46 15 56 35l19-102h32L160 0h-30zM45-64c-2 27 10 43 35 43 54-1 69-50 69-103 0-29-15-46-42-46-53-1-58 58-62 106" id="T"/><g id="e"><use transform="matrix(0.030864197530864182,0,0,0.030864197530864182,0,0)" xlink:href="#Q"/><use transform="matrix(0.030864197530864182,0,0,0.030864197530864182,7.993827160493823,0)" xlink:href="#R"/><use transform="matrix(0.030864197530864182,0,0,0.030864197530864182,14.16666666666666,0)" xlink:href="#S"/><use transform="matrix(0.030864197530864182,0,0,0.030864197530864182,20.3395061728395,0)" xlink:href="#T"/></g><path fill="#333" d="M55-144c13 50 104 24 104 88C159 21 15 23 1-39l26-10c6 40 102 42 102-4-13-50-104-23-104-87 0-71 143-71 148-8l-29 4c-5-35-85-37-89 0" id="U"/><path fill="#333" d="M67-158c22-48 132-52 116 29L158 0h-32l25-140c3-38-53-32-70-12C52-117 51-52 38 0H6l36-190h30" id="V"/><path fill="#333" d="M30-147c31-64 166-65 159 27C183-49 158 1 86 4 9 8 1-88 30-147zM88-20c53 0 68-48 68-100 0-31-11-51-44-50-52 1-68 46-68 97 0 32 13 53 44 53" id="W"/><path fill="#333" d="M66-151c12-25 30-51 66-40l-6 26C45-176 58-65 38 0H6l36-190h30" id="X"/><g id="f"><use transform="matrix(0.030864197530864182,0,0,0.030864197530864182,0,0)" xlink:href="#U"/><use transform="matrix(0.030864197530864182,0,0,0.030864197530864182,5.555555555555553,0)" xlink:href="#R"/><use transform="matrix(0.030864197530864182,0,0,0.030864197530864182,11.728395061728389,0)" xlink:href="#V"/><use transform="matrix(0.030864197530864182,0,0,0.030864197530864182,17.901234567901227,0)" xlink:href="#U"/><use transform="matrix(0.030864197530864182,0,0,0.030864197530864182,23.45679012345678,0)" xlink:href="#W"/><use transform="matrix(0.030864197530864182,0,0,0.030864197530864182,29.62962962962962,0)" xlink:href="#X"/></g><g id="g"><use transform="matrix(0.030864197530864182,0,0,0.030864197530864182,0,0)" xlink:href="#S"/><use transform="matrix(0.030864197530864182,0,0,0.030864197530864182,6.172839506172837,0)" xlink:href="#V"/><use transform="matrix(0.030864197530864182,0,0,0.030864197530864182,12.345679012345673,0)" xlink:href="#T"/></g><path fill="#333" d="M44-68c0 29 11 47 38 47 30 0 42-19 51-41l28 9C148-21 126 4 82 4 31 4 10-29 12-85c3-77 74-140 146-93 12 8 15 23 18 40l-31 5c-1-22-13-36-36-36-52 0-65 49-65 101" id="Y"/><path fill="#333" d="M248-111c6-24 9-61-24-58-72 9-57 108-77 169h-31l26-142c3-37-50-30-64-10C52-115 50-51 37 0H6l36-190h30c-1 10-6 24-4 32 13-43 101-52 105 5 13-22 29-41 61-41 90 0 28 129 23 194h-31" id="Z"/><g id="h"><use transform="matrix(0.030864197530864182,0,0,0.030864197530864182,0,0)" xlink:href="#Y"/><use transform="matrix(0.030864197530864182,0,0,0.030864197530864182,5.555555555555553,0)" xlink:href="#S"/><use transform="matrix(0.030864197530864182,0,0,0.030864197530864182,11.728395061728389,0)" xlink:href="#Z"/><use transform="matrix(0.030864197530864182,0,0,0.030864197530864182,20.956790123456777,0)" xlink:href="#R"/><use transform="matrix(0.030864197530864182,0,0,0.030864197530864182,27.129629629629612,0)" xlink:href="#X"/><use transform="matrix(0.030864197530864182,0,0,0.030864197530864182,30.80246913580245,0)" xlink:href="#S"/></g><path fill="#333" d="M51-54c-9 22 5 41 31 30L79-1C43 14 10-4 19-52l22-115H19l5-23h22l19-43h21l-9 43h35l-4 23H73" id="aa"/><g id="i"><use transform="matrix(0.030864197530864182,0,0,0.030864197530864182,0,0)" xlink:href="#T"/><use transform="matrix(0.030864197530864182,0,0,0.030864197530864182,6.172839506172837,0)" xlink:href="#S"/><use transform="matrix(0.030864197530864182,0,0,0.030864197530864182,12.345679012345673,0)" xlink:href="#aa"/><use transform="matrix(0.030864197530864182,0,0,0.030864197530864182,15.432098765432091,0)" xlink:href="#S"/></g><path fill="#333" d="M185-189c-5-48-123-54-124 2 14 75 158 14 163 119 3 78-121 87-175 55-17-10-28-26-33-46l33-7c5 56 141 63 141-1 0-78-155-14-162-118-5-82 145-84 179-34 5 7 8 16 11 25" id="ab"/><path fill="#333" d="M117-194c89-4 53 116 60 194h-32v-121c0-31-8-49-39-48C34-167 62-67 57 0H25l-1-190h30c1 10-1 24 2 32 11-22 29-35 61-36" id="ac"/><path fill="#333" d="M135-143c-3-34-86-38-87 0 15 53 115 12 119 90S17 21 10-45l28-5c4 36 97 45 98 0-10-56-113-15-118-90-4-57 82-63 122-42 12 7 21 19 24 35" id="ad"/><g id="j"><use transform="matrix(0.05555555555555554,0,0,0.05555555555555554,0,0)" xlink:href="#ab"/><use transform="matrix(0.05555555555555554,0,0,0.05555555555555554,13.333333333333329,0)" xlink:href="#K"/><use transform="matrix(0.05555555555555554,0,0,0.05555555555555554,24.444444444444436,0)" xlink:href="#ac"/><use transform="matrix(0.05555555555555554,0,0,0.05555555555555554,35.55555555555554,0)" xlink:href="#ad"/><use transform="matrix(0.05555555555555554,0,0,0.05555555555555554,45.55555555555554,0)" xlink:href="#I"/><use transform="matrix(0.05555555555555554,0,0,0.05555555555555554,56.66666666666665,0)" xlink:href="#H"/></g><path fill="#333" d="M212-179c-10-28-35-45-73-45-59 0-87 40-87 99 0 60 29 101 89 101 43 0 62-24 78-52l27 14C228-24 195 4 139 4 59 4 22-46 18-125c-6-104 99-153 187-111 19 9 31 26 39 46" id="ae"/><path fill="#333" d="M210-169c-67 3-38 105-44 169h-31v-121c0-29-5-50-35-48C34-165 62-65 56 0H25l-1-190h30c1 10-1 24 2 32 10-44 99-50 107 0 11-21 27-35 58-36 85-2 47 119 55 194h-31v-121c0-29-5-49-35-48" id="af"/><g id="k"><use transform="matrix(0.05555555555555554,0,0,0.05555555555555554,0,0)" xlink:href="#ae"/><use transform="matrix(0.05555555555555554,0,0,0.05555555555555554,14.388888888888884,0)" xlink:href="#E"/><use transform="matrix(0.05555555555555554,0,0,0.05555555555555554,25.499999999999993,0)" xlink:href="#af"/><use transform="matrix(0.05555555555555554,0,0,0.05555555555555554,42.1111111111111,0)" xlink:href="#K"/><use transform="matrix(0.05555555555555554,0,0,0.05555555555555554,53.22222222222221,0)" xlink:href="#H"/><use transform="matrix(0.05555555555555554,0,0,0.05555555555555554,59.833333333333314,0)" xlink:href="#E"/></g><path fill="#333" d="M240 0l2-218c-23 76-54 145-80 218h-23L58-218 59 0H30v-248h44l77 211c21-75 51-140 76-211h43V0h-30" id="ag"/><path fill="#333" d="M24-231v-30h32v30H24zM24 0v-190h32V0H24" id="ah"/><path fill="#333" d="M96-169c-40 0-48 33-48 73s9 75 48 75c24 0 41-14 43-38l32 2c-6 37-31 61-74 61-59 0-76-41-82-99-10-93 101-131 147-64 4 7 5 14 7 22l-32 3c-4-21-16-35-41-35" id="ai"/><path fill="#333" d="M115-194c55 1 70 41 70 98S169 2 115 4C84 4 66-9 55-30l1 105H24l-1-265h31l2 30c10-21 28-34 59-34zm-8 174c40 0 45-34 45-75s-6-73-45-74c-42 0-51 32-51 76 0 43 10 73 51 73" id="aj"/><path fill="#333" d="M106-169C34-169 62-67 57 0H25v-261h32l-1 103c12-21 28-36 61-36 89 0 53 116 60 194h-32v-121c2-32-8-49-39-48" id="ak"/><g id="l"><use transform="matrix(0.05555555555555554,0,0,0.05555555555555554,0,0)" xlink:href="#ag"/><use transform="matrix(0.05555555555555554,0,0,0.05555555555555554,16.611111111111107,0)" xlink:href="#ah"/><use transform="matrix(0.05555555555555554,0,0,0.05555555555555554,20.999999999999993,0)" xlink:href="#ai"/><use transform="matrix(0.05555555555555554,0,0,0.05555555555555554,30.99999999999999,0)" xlink:href="#H"/><use transform="matrix(0.05555555555555554,0,0,0.05555555555555554,37.6111111111111,0)" xlink:href="#I"/><use transform="matrix(0.05555555555555554,0,0,0.05555555555555554,48.72222222222221,0)" xlink:href="#aj"/><use transform="matrix(0.05555555555555554,0,0,0.05555555555555554,59.833333333333314,0)" xlink:href="#ak"/><use transform="matrix(0.05555555555555554,0,0,0.05555555555555554,70.94444444444443,0)" xlink:href="#I"/><use transform="matrix(0.05555555555555554,0,0,0.05555555555555554,82.05555555555554,0)" xlink:href="#ac"/><use transform="matrix(0.05555555555555554,0,0,0.05555555555555554,93.16666666666666,0)" xlink:href="#K"/></g><path fill="#333" d="M30-248c87 1 191-15 191 75 0 78-77 80-158 76V0H30v-248zm33 125c57 0 124 11 124-50 0-59-68-47-124-48v98" id="al"/><path fill="#333" d="M84 4C-5 8 30-112 23-190h32v120c0 31 7 50 39 49 72-2 45-101 50-169h31l1 190h-30c-1-10 1-25-2-33-11 22-28 36-60 37" id="am"/><g id="m"><use transform="matrix(0.05555555555555554,0,0,0.05555555555555554,0,0)" xlink:href="#al"/><use transform="matrix(0.05555555555555554,0,0,0.05555555555555554,13.333333333333329,0)" xlink:href="#N"/><use transform="matrix(0.05555555555555554,0,0,0.05555555555555554,17.722222222222214,0)" xlink:href="#am"/><use transform="matrix(0.05555555555555554,0,0,0.05555555555555554,28.833333333333325,0)" xlink:href="#M"/><use transform="matrix(0.05555555555555554,0,0,0.05555555555555554,39.94444444444443,0)" xlink:href="#ah"/><use transform="matrix(0.05555555555555554,0,0,0.05555555555555554,44.333333333333314,0)" xlink:href="#ac"/></g><path fill="#333" d="M127-220V0H93v-220H8v-28h204v28h-85" id="an"/><g id="n"><use transform="matrix(0.055555555555555525,0,0,0.055555555555555525,0,0)" xlink:href="#an"/><use transform="matrix(0.055555555555555525,0,0,0.055555555555555525,9.94444444444444,0)" xlink:href="#I"/></g><path fill="#333" d="M108 0H70L1-190h34L89-25l56-165h34" id="ao"/><g id="o"><use transform="matrix(0.055555555555555525,0,0,0.055555555555555525,0,0)" xlink:href="#G"/><use transform="matrix(0.055555555555555525,0,0,0.055555555555555525,13.333333333333325,0)" xlink:href="#K"/><use transform="matrix(0.055555555555555525,0,0,0.055555555555555525,24.44444444444443,0)" xlink:href="#K"/><use transform="matrix(0.055555555555555525,0,0,0.055555555555555525,35.555555555555536,0)" xlink:href="#ak"/><use transform="matrix(0.055555555555555525,0,0,0.055555555555555525,46.66666666666664,0)" xlink:href="#ah"/><use transform="matrix(0.055555555555555525,0,0,0.055555555555555525,51.05555555555553,0)" xlink:href="#ao"/><use transform="matrix(0.055555555555555525,0,0,0.055555555555555525,61.05555555555552,0)" xlink:href="#K"/></g><path fill="#333" d="M238-179c0 84-86 86-175 82L45 0H11l48-248c82 0 179-12 179 69zm-34 1c0-53-64-42-116-43l-19 98c63 0 135 9 135-55" id="ap"/><path fill="#333" d="M67 3c-93-2-31-127-26-193h32L48-50c-3 39 53 32 70 12 30-34 30-101 43-152h32L157 0h-30c1-10 6-24 4-33-14 20-29 37-64 36" id="aq"/><path fill="#333" d="M68-162c25-46 127-43 121 31C183-60 169 1 98 4 69 5 53-11 43-31L36 0H5l52-261h31zm88 36c2-27-9-43-34-43-55 0-70 51-70 103 0 29 15 45 43 46 52 0 58-58 61-106" id="ar"/><path fill="#333" d="M6 0l50-261h32L37 0H6" id="as"/><path fill="#333" d="M50-231l6-30h32l-6 30H50zM6 0l37-190h31L37 0H6" id="at"/><path fill="#333" d="M67-158c15-20 31-36 64-36 94 0 33 127 27 194h-32l25-140c3-38-53-32-70-12C52-117 51-51 37 0H6l51-261h31" id="au"/><g id="p"><use transform="matrix(0.030864197530864182,0,0,0.030864197530864182,0,0)" xlink:href="#ap"/><use transform="matrix(0.030864197530864182,0,0,0.030864197530864182,7.407407407407404,0)" xlink:href="#aq"/><use transform="matrix(0.030864197530864182,0,0,0.030864197530864182,13.58024691358024,0)" xlink:href="#ar"/><use transform="matrix(0.030864197530864182,0,0,0.030864197530864182,19.753086419753075,0)" xlink:href="#as"/><use transform="matrix(0.030864197530864182,0,0,0.030864197530864182,22.191358024691347,0)" xlink:href="#at"/><use transform="matrix(0.030864197530864182,0,0,0.030864197530864182,24.62962962962962,0)" xlink:href="#U"/><use transform="matrix(0.030864197530864182,0,0,0.030864197530864182,30.185185185185173,0)" xlink:href="#au"/></g><path fill="#333" d="M67-162c32-53 139-36 121 50C175-51 163 2 97 4 68 4 52-11 42-31 38 6 28 39 22 75H-9l50-265h29c-1 10 0 20-3 28zm89 36c0-26-10-43-35-43-54 0-67 50-69 103-1 29 14 45 42 46 53 0 62-58 62-106" id="av"/><g id="q"><use transform="matrix(0.030864197530864182,0,0,0.030864197530864182,0,0)" xlink:href="#aa"/><use transform="matrix(0.030864197530864182,0,0,0.030864197530864182,3.0864197530864184,0)" xlink:href="#R"/><use transform="matrix(0.030864197530864182,0,0,0.030864197530864182,9.259259259259256,0)" xlink:href="#Z"/><use transform="matrix(0.030864197530864182,0,0,0.030864197530864182,18.487654320987644,0)" xlink:href="#av"/><use transform="matrix(0.030864197530864182,0,0,0.030864197530864182,24.66049382716048,0)" xlink:href="#R"/><use transform="matrix(0.030864197530864182,0,0,0.030864197530864182,30.833333333333314,0)" xlink:href="#X"/><use transform="matrix(0.030864197530864182,0,0,0.030864197530864182,34.50617283950615,0)" xlink:href="#S"/><use transform="matrix(0.030864197530864182,0,0,0.030864197530864182,40.679012345678984,0)" xlink:href="#aa"/><use transform="matrix(0.030864197530864182,0,0,0.030864197530864182,43.7654320987654,0)" xlink:href="#aq"/><use transform="matrix(0.030864197530864182,0,0,0.030864197530864182,49.93827160493824,0)" xlink:href="#X"/><use transform="matrix(0.030864197530864182,0,0,0.030864197530864182,53.61111111111107,0)" xlink:href="#R"/></g><g id="r"><use transform="matrix(0.030864197530864182,0,0,0.030864197530864182,0,0)" xlink:href="#S"/><use transform="matrix(0.030864197530864182,0,0,0.030864197530864182,6.172839506172837,0)" xlink:href="#V"/><use transform="matrix(0.030864197530864182,0,0,0.030864197530864182,12.345679012345673,0)" xlink:href="#T"/></g><g id="s"><use transform="matrix(0.030864197530864182,0,0,0.030864197530864182,0,0)" xlink:href="#Y"/><use transform="matrix(0.030864197530864182,0,0,0.030864197530864182,5.555555555555553,0)" xlink:href="#S"/><use transform="matrix(0.030864197530864182,0,0,0.030864197530864182,11.728395061728389,0)" xlink:href="#X"/></g><g id="t"><use transform="matrix(0.030864197530864182,0,0,0.030864197530864182,0,0)" xlink:href="#Y"/><use transform="matrix(0.030864197530864182,0,0,0.030864197530864182,5.555555555555553,0)" xlink:href="#W"/><use transform="matrix(0.030864197530864182,0,0,0.030864197530864182,11.728395061728389,0)" xlink:href="#aq"/><use transform="matrix(0.030864197530864182,0,0,0.030864197530864182,17.901234567901227,0)" xlink:href="#V"/><use transform="matrix(0.030864197530864182,0,0,0.030864197530864182,24.074074074074062,0)" xlink:href="#aa"/></g><path fill="#333" d="M194-120c59 52 2 134-86 124-53-6-90-18-98-63l31-7c8 30 29 43 70 43 46 0 84-17 71-62-32-43-135-20-137-98-3-89 178-90 191-16l-30 9c-8-48-127-53-127 5 0 53 81 35 115 65" id="aw"/><g id="u"><use transform="matrix(0.030864197530864182,0,0,0.030864197530864182,0,0)" xlink:href="#aw"/><use transform="matrix(0.030864197530864182,0,0,0.030864197530864182,7.407407407407404,0)" xlink:href="#aq"/><use transform="matrix(0.030864197530864182,0,0,0.030864197530864182,13.58024691358024,0)" xlink:href="#ar"/><use transform="matrix(0.030864197530864182,0,0,0.030864197530864182,19.753086419753075,0)" xlink:href="#U"/><use transform="matrix(0.030864197530864182,0,0,0.030864197530864182,25.30864197530863,0)" xlink:href="#Y"/><use transform="matrix(0.030864197530864182,0,0,0.030864197530864182,30.864197530864182,0)" xlink:href="#X"/><use transform="matrix(0.030864197530864182,0,0,0.030864197530864182,34.53703703703702,0)" xlink:href="#at"/><use transform="matrix(0.030864197530864182,0,0,0.030864197530864182,36.97530864197529,0)" xlink:href="#ar"/><use transform="matrix(0.030864197530864182,0,0,0.030864197530864182,43.148148148148124,0)" xlink:href="#R"/></g><g id="v"><use transform="matrix(0.030864197530864182,0,0,0.030864197530864182,0,0)" xlink:href="#aa"/><use transform="matrix(0.030864197530864182,0,0,0.030864197530864182,3.0864197530864184,0)" xlink:href="#W"/></g><g id="w"><use transform="matrix(0.030864197530864182,0,0,0.030864197530864182,0,0)" xlink:href="#Y"/><use transform="matrix(0.030864197530864182,0,0,0.030864197530864182,5.555555555555553,0)" xlink:href="#W"/><use transform="matrix(0.030864197530864182,0,0,0.030864197530864182,11.728395061728389,0)" xlink:href="#aq"/><use transform="matrix(0.030864197530864182,0,0,0.030864197530864182,17.901234567901227,0)" xlink:href="#V"/><use transform="matrix(0.030864197530864182,0,0,0.030864197530864182,24.074074074074062,0)" xlink:href="#aa"/></g><g id="x"><use transform="matrix(0.030864197530864182,0,0,0.030864197530864182,0,0)" xlink:href="#S"/><use transform="matrix(0.030864197530864182,0,0,0.030864197530864182,6.172839506172837,0)" xlink:href="#V"/><use transform="matrix(0.030864197530864182,0,0,0.030864197530864182,12.345679012345673,0)" xlink:href="#T"/></g><g id="y"><use transform="matrix(0.030864197530864182,0,0,0.030864197530864182,0,0)" xlink:href="#av"/><use transform="matrix(0.030864197530864182,0,0,0.030864197530864182,6.172839506172837,0)" xlink:href="#aq"/><use transform="matrix(0.030864197530864182,0,0,0.030864197530864182,12.345679012345673,0)" xlink:href="#ar"/><use transform="matrix(0.030864197530864182,0,0,0.030864197530864182,18.518518518518512,0)" xlink:href="#as"/><use transform="matrix(0.030864197530864182,0,0,0.030864197530864182,20.956790123456784,0)" xlink:href="#at"/><use transform="matrix(0.030864197530864182,0,0,0.030864197530864182,23.395061728395056,0)" xlink:href="#U"/><use transform="matrix(0.030864197530864182,0,0,0.030864197530864182,28.95061728395061,0)" xlink:href="#au"/></g><g id="z"><use transform="matrix(0.030864197530864182,0,0,0.030864197530864182,0,0)" xlink:href="#au"/><use transform="matrix(0.030864197530864182,0,0,0.030864197530864182,6.172839506172837,0)" xlink:href="#W"/><use transform="matrix(0.030864197530864182,0,0,0.030864197530864182,12.345679012345673,0)" xlink:href="#X"/><use transform="matrix(0.030864197530864182,0,0,0.030864197530864182,16.018518518518512,0)" xlink:href="#V"/></g><path fill="#333" d="M89 0H52L20-190h33L74-25l89-165h34" id="ax"/><g id="A"><use transform="matrix(0.030864197530864182,0,0,0.030864197530864182,0,0)" xlink:href="#ax"/><use transform="matrix(0.030864197530864182,0,0,0.030864197530864182,5.555555555555553,0)" xlink:href="#W"/><use transform="matrix(0.030864197530864182,0,0,0.030864197530864182,11.728395061728389,0)" xlink:href="#as"/><use transform="matrix(0.030864197530864182,0,0,0.030864197530864182,14.166666666666659,0)" xlink:href="#aq"/><use transform="matrix(0.030864197530864182,0,0,0.030864197530864182,20.339506172839496,0)" xlink:href="#Z"/><use transform="matrix(0.030864197530864182,0,0,0.030864197530864182,29.567901234567884,0)" xlink:href="#R"/></g><g id="B"><use transform="matrix(0.030864197530864182,0,0,0.030864197530864182,0,0)" xlink:href="#S"/><use transform="matrix(0.030864197530864182,0,0,0.030864197530864182,6.172839506172837,0)" xlink:href="#aq"/><use transform="matrix(0.030864197530864182,0,0,0.030864197530864182,12.345679012345673,0)" xlink:href="#T"/><use transform="matrix(0.030864197530864182,0,0,0.030864197530864182,18.518518518518512,0)" xlink:href="#at"/><use transform="matrix(0.030864197530864182,0,0,0.030864197530864182,20.956790123456784,0)" xlink:href="#W"/></g><g id="C"><use transform="matrix(0.030864197530864182,0,0,0.030864197530864182,0,0)" xlink:href="#T"/><use transform="matrix(0.030864197530864182,0,0,0.030864197530864182,6.172839506172837,0)" xlink:href="#S"/><use transform="matrix(0.030864197530864182,0,0,0.030864197530864182,12.345679012345673,0)" xlink:href="#aa"/><use transform="matrix(0.030864197530864182,0,0,0.030864197530864182,15.432098765432091,0)" xlink:href="#S"/></g></defs></g></svg>