<svg xmlns="http://www.w3.org/2000/svg" xmlns:xlink="http://www.w3.org/1999/xlink" xmlns:lucid="lucid" width="690" height="220"><g transform="translate(-520 -360)" lucid:page-tab-id="VD02umr5l-Hr"><path d="M820 406c0-3.3 2.7-6 6-6h88c3.3 0 6 2.7 6 6v88c0 3.3-2.7 6-6 6h-88c-3.3 0-6-2.7-6-6z" stroke="#5e5e5e" stroke-width="3" fill="#ffeca9"/><use xlink:href="#a" transform="matrix(1,0,0,1,825,405) translate(1.4444444444444642 37.75694444444444)"/><use xlink:href="#b" transform="matrix(1,0,0,1,825,405) translate(33.333333333333336 37.75694444444444)"/><use xlink:href="#c" transform="matrix(1,0,0,1,825,405) translate(23.43827160493828 56.4236111111111)"/><path d="M1040 406c0-3.3 2.7-6 6-6h88c3.3 0 6 2.7 6 6v88c0 3.3-2.7 6-6 6h-88c-3.3 0-6-2.7-6-6z" stroke="#5e5e5e" stroke-width="3" fill="#c1e4f7"/><use xlink:href="#d" transform="matrix(1,0,0,1,1045,405) translate(8.29320987654323 37.75694444444444)"/><use xlink:href="#e" transform="matrix(1,0,0,1,1045,405) translate(48.910493827160494 37.75694444444444)"/><use xlink:href="#f" transform="matrix(1,0,0,1,1045,405) translate(7.904320987654344 56.4236111111111)"/><path d="M922.5 450h97.5" stroke="#5e5e5e" stroke-width="2" fill="none"/><path d="M922.53 451h-1.03v-2h1.03z" fill="#5e5e5e"/><path d="M1035.26 450l-14.26 4.64v-9.28z" stroke="#5e5e5e" stroke-width="2" fill="#5e5e5e"/><path d="M580 406c0-3.3 2.7-6 6-6h108c3.3 0 6 2.7 6 6v88c0 3.3-2.7 6-6 6H586c-3.3 0-6-2.7-6-6z" stroke="#5e5e5e" stroke-width="3" fill="#c7e8ac"/><path d="M676.32 426.64l-14.08 11.76v-5.92c0-4.88-4-8.88-8.88-8.88h-44.48c-4.88 0-8.88 4-8.88 8.88V468c0 4.96 4 8.96 8.88 8.96h44.48c4.88 0 8.88-4 8.88-8.96v-5.92l14.08 11.84c1.52 1.2 3.68.16 3.68-1.76v-43.84c0-1.84-2.16-2.88-3.68-1.68m-32.56 24.96l-17.52 15.6c-1.04.96-2.56.16-2.56-1.2l.08-31.44c.08-1.44 1.52-2.16 2.64-1.2l17.36 15.84c.72.64.72 1.76 0 2.4" fill="#dbf0c9"/><use xlink:href="#g" transform="matrix(1,0,0,1,585,405) translate(27.4104938271605 48.111111111111114)"/><path d="M702.5 450H800" stroke="#5e5e5e" stroke-width="2" fill="none"/><path d="M702.53 451h-1.03v-2h1.03z" fill="#5e5e5e"/><path d="M815.26 450L801 454.64v-9.28z" stroke="#5e5e5e" stroke-width="2" fill="#5e5e5e"/><path d="M730 386c0-3.3 2.7-6 6-6h42c3.3 0 6 2.7 6 6v42c0 3.3-2.7 6-6 6h-42c-3.3 0-6-2.7-6-6z" stroke="#5e5e5e" stroke-width="3" fill="#c7e8ac"/><path d="M736 392c0-3.3 2.7-6 6-6h42c3.3 0 6 2.7 6 6v42c0 3.3-2.7 6-6 6h-42c-3.3 0-6-2.7-6-6z" stroke="#5e5e5e" stroke-width="3" fill="#c7e8ac"/><path d="M754.8 421.16h16.36c2.1 0 3.8-1.67 3.8-3.77v-16.37c0-2.1-1.7-3.77-3.8-3.77H754.8c-2.07 0-3.77 1.66-3.77 3.77v16.36c0 2.1 1.7 3.76 3.78 3.76m6.13-16.22l3.74 5.37 2.38-2 4.1 5.3h-16.34l6.13-8.66z" fill="#dbf0c9"/><path d="M540 506c0-3.3 2.7-6 6-6h188c3.3 0 6 2.7 6 6v48c0 3.3-2.7 6-6 6H546c-3.3 0-6-2.7-6-6z" stroke="#000" stroke-opacity="0" stroke-width="3" fill="#fff" fill-opacity="0"/><use xlink:href="#h" transform="matrix(1,0,0,1,545,505) translate(40.209876543209916 28.069444444444436)"/><use xlink:href="#i" transform="matrix(1,0,0,1,545,505) translate(99.75308641975309 28.069444444444436)"/><path d="M990 506c0-3.3 2.7-6 6-6h188c3.3 0 6 2.7 6 6v48c0 3.3-2.7 6-6 6H996c-3.3 0-6-2.7-6-6z" stroke="#000" stroke-opacity="0" stroke-width="3" fill="#fff" fill-opacity="0"/><use xlink:href="#j" transform="matrix(1,0,0,1,995,505) translate(33.29629629629634 28.069444444444436)"/><use xlink:href="#k" transform="matrix(1,0,0,1,995,505) translate(88.51851851851853 28.069444444444436)"/><use xlink:href="#l" transform="matrix(1,0,0,1,995,505) translate(118.67901234567898 28.069444444444436)"/><path d="M950 386c0-3.3 2.7-6 6-6h42c3.3 0 6 2.7 6 6v42c0 3.3-2.7 6-6 6h-42c-3.3 0-6-2.7-6-6z" stroke="#5e5e5e" stroke-width="3" fill="#c1e4f7"/><path d="M956 392c0-3.3 2.7-6 6-6h42c3.3 0 6 2.7 6 6v42c0 3.3-2.7 6-6 6h-42c-3.3 0-6-2.7-6-6z" stroke="#5e5e5e" stroke-width="3" fill="#c1e4f7"/><path d="M967.3 418.24h31.4v3.5h-31.4v-3.5zm0 6.97h31.4v3.5h-31.4v-3.5zm29.64-27.43c-.5-.3-1.1-.48-1.73-.48h-24.44c-.6 0-1.2.16-1.7.47-1.05.58-1.77 1.7-1.77 3.02v9.28c0 1.93 1.56 3.5 3.46 3.5h24.45c1.94 0 3.5-1.57 3.5-3.5v-9.3c0-1.3-.7-2.43-1.76-3m-23.3 12.77l6.98-9.9 4.28 6.13 2.72-2.28 4.7 6.05h-18.67z" fill="#d7edfa"/><path d="M770 506c0-3.3 2.7-6 6-6h188c3.3 0 6 2.7 6 6v48c0 3.3-2.7 6-6 6H776c-3.3 0-6-2.7-6-6z" stroke="#000" stroke-opacity="0" stroke-width="3" fill="#fff" fill-opacity="0"/><g><use xlink:href="#m" transform="matrix(1,0,0,1,775,505) translate(29.99074074074079 28.069444444444436)"/><use xlink:href="#n" transform="matrix(1,0,0,1,775,505) translate(73.15740740740743 28.069444444444436)"/><use xlink:href="#o" transform="matrix(1,0,0,1,775,505) translate(117.75 28.069444444444436)"/></g><defs><path fill="#333" d="M160-131c35 5 61 23 61 61C221 17 115-2 30 0v-248c76 3 177-17 177 60 0 33-19 50-47 57zm-97-11c50-1 110 9 110-42 0-47-63-36-110-37v79zm0 115c55-2 124 14 124-45 0-56-70-42-124-44v89" id="p"/><path fill="#333" d="M24-231v-30h32v30H24zM24 0v-190h32V0H24" id="q"/><path fill="#333" d="M114-163C36-179 61-72 57 0H25l-1-190h30c1 12-1 29 2 39 6-27 23-49 58-41v29" id="r"/><path fill="#333" d="M85-194c31 0 48 13 60 33l-1-100h32l1 261h-30c-2-10 0-23-3-31C134-8 116 4 85 4 32 4 16-35 15-94c0-66 23-100 70-100zm9 24c-40 0-46 34-46 75 0 40 6 74 45 74 42 0 51-32 51-76 0-42-9-74-50-73" id="s"/><g id="a"><use transform="matrix(0.04320987654320985,0,0,0.04320987654320985,0,0)" xlink:href="#p"/><use transform="matrix(0.04320987654320985,0,0,0.04320987654320985,10.370370370370365,0)" xlink:href="#q"/><use transform="matrix(0.04320987654320985,0,0,0.04320987654320985,13.783950617283944,0)" xlink:href="#r"/><use transform="matrix(0.04320987654320985,0,0,0.04320987654320985,18.925925925925917,0)" xlink:href="#s"/></g><path fill="#333" d="M212-179c-10-28-35-45-73-45-59 0-87 40-87 99 0 60 29 101 89 101 43 0 62-24 78-52l27 14C228-24 195 4 139 4 59 4 22-46 18-125c-6-104 99-153 187-111 19 9 31 26 39 46" id="t"/><path fill="#333" d="M100-194c62-1 85 37 85 99 1 63-27 99-86 99S16-35 15-95c0-66 28-99 85-99zM99-20c44 1 53-31 53-75 0-43-8-75-51-75s-53 32-53 75 10 74 51 75" id="u"/><path fill="#333" d="M84 4C-5 8 30-112 23-190h32v120c0 31 7 50 39 49 72-2 45-101 50-169h31l1 190h-30c-1-10 1-25-2-33-11 22-28 36-60 37" id="v"/><path fill="#333" d="M117-194c89-4 53 116 60 194h-32v-121c0-31-8-49-39-48C34-167 62-67 57 0H25l-1-190h30c1 10-1 24 2 32 11-22 29-35 61-36" id="w"/><path fill="#333" d="M59-47c-2 24 18 29 38 22v24C64 9 27 4 27-40v-127H5v-23h24l9-43h21v43h35v23H59v120" id="x"/><path fill="#333" d="M100-194c63 0 86 42 84 106H49c0 40 14 67 53 68 26 1 43-12 49-29l28 8c-11 28-37 45-77 45C44 4 14-33 15-96c1-61 26-98 85-98zm52 81c6-60-76-77-97-28-3 7-6 17-6 28h103" id="y"/><g id="b"><use transform="matrix(0.04320987654320985,0,0,0.04320987654320985,0,0)" xlink:href="#t"/><use transform="matrix(0.04320987654320985,0,0,0.04320987654320985,11.191358024691352,0)" xlink:href="#u"/><use transform="matrix(0.04320987654320985,0,0,0.04320987654320985,19.83333333333332,0)" xlink:href="#v"/><use transform="matrix(0.04320987654320985,0,0,0.04320987654320985,28.475308641975293,0)" xlink:href="#w"/><use transform="matrix(0.04320987654320985,0,0,0.04320987654320985,37.117283950617264,0)" xlink:href="#x"/><use transform="matrix(0.04320987654320985,0,0,0.04320987654320985,41.43827160493825,0)" xlink:href="#y"/><use transform="matrix(0.04320987654320985,0,0,0.04320987654320985,50.08024691358023,0)" xlink:href="#r"/></g><path fill="#333" d="M30-248c87 1 191-15 191 75 0 78-77 80-158 76V0H30v-248zm33 125c57 0 124 11 124-50 0-59-68-47-124-48v98" id="z"/><path fill="#333" d="M24 0v-261h32V0H24" id="A"/><path fill="#333" d="M177-190C167-65 218 103 67 71c-23-6-38-20-44-43l32-5c15 47 100 32 89-28v-30C133-14 115 1 83 1 29 1 15-40 15-95c0-56 16-97 71-98 29-1 48 16 59 35 1-10 0-23 2-32h30zM94-22c36 0 50-32 50-73 0-42-14-75-50-75-39 0-46 34-46 75s6 73 46 73" id="B"/><g id="c"><use transform="matrix(0.04320987654320985,0,0,0.04320987654320985,0,0)" xlink:href="#z"/><use transform="matrix(0.04320987654320985,0,0,0.04320987654320985,10.370370370370365,0)" xlink:href="#A"/><use transform="matrix(0.04320987654320985,0,0,0.04320987654320985,13.783950617283944,0)" xlink:href="#v"/><use transform="matrix(0.04320987654320985,0,0,0.04320987654320985,22.42592592592592,0)" xlink:href="#B"/><use transform="matrix(0.04320987654320985,0,0,0.04320987654320985,31.067901234567888,0)" xlink:href="#q"/><use transform="matrix(0.04320987654320985,0,0,0.04320987654320985,34.48148148148147,0)" xlink:href="#w"/></g><path fill="#333" d="M185-189c-5-48-123-54-124 2 14 75 158 14 163 119 3 78-121 87-175 55-17-10-28-26-33-46l33-7c5 56 141 63 141-1 0-78-155-14-162-118-5-82 145-84 179-34 5 7 8 16 11 25" id="C"/><path fill="#333" d="M141-36C126-15 110 5 73 4 37 3 15-17 15-53c-1-64 63-63 125-63 3-35-9-54-41-54-24 1-41 7-42 31l-33-3c5-37 33-52 76-52 45 0 72 20 72 64v82c-1 20 7 32 28 27v20c-31 9-61-2-59-35zM48-53c0 20 12 33 32 33 41-3 63-29 60-74-43 2-92-5-92 41" id="D"/><g id="d"><use transform="matrix(0.04320987654320985,0,0,0.04320987654320985,0,0)" xlink:href="#C"/><use transform="matrix(0.04320987654320985,0,0,0.04320987654320985,10.370370370370365,0)" xlink:href="#D"/><use transform="matrix(0.04320987654320985,0,0,0.04320987654320985,19.012345679012334,0)" xlink:href="#B"/><use transform="matrix(0.04320987654320985,0,0,0.04320987654320985,27.654320987654305,0)" xlink:href="#y"/></g><path fill="#333" d="M30-248c118-7 216 8 213 122C240-48 200 0 122 0H30v-248zM63-27c89 8 146-16 146-99s-60-101-146-95v194" id="E"/><g id="e"><use transform="matrix(0.04320987654320985,0,0,0.04320987654320985,0,0)" xlink:href="#E"/><use transform="matrix(0.04320987654320985,0,0,0.04320987654320985,11.191358024691352,0)" xlink:href="#D"/><use transform="matrix(0.04320987654320985,0,0,0.04320987654320985,19.83333333333332,0)" xlink:href="#x"/><use transform="matrix(0.04320987654320985,0,0,0.04320987654320985,24.15432098765431,0)" xlink:href="#D"/></g><path fill="#333" d="M233-177c-1 41-23 64-60 70L243 0h-38l-65-103H63V0H30v-248c88 3 205-21 203 71zM63-129c60-2 137 13 137-47 0-61-80-42-137-45v92" id="F"/><path fill="#333" d="M115-194c55 1 70 41 70 98S169 2 115 4C84 4 66-9 55-30l1 105H24l-1-265h31l2 30c10-21 28-34 59-34zm-8 174c40 0 45-34 45-75s-6-73-45-74c-42 0-51 32-51 76 0 43 10 73 51 73" id="G"/><path fill="#333" d="M135-143c-3-34-86-38-87 0 15 53 115 12 119 90S17 21 10-45l28-5c4 36 97 45 98 0-10-56-113-15-118-90-4-57 82-63 122-42 12 7 21 19 24 35" id="H"/><path fill="#333" d="M179-190L93 31C79 59 56 82 12 73V49c39 6 53-20 64-50L1-190h34L92-34l54-156h33" id="I"/><g id="f"><use transform="matrix(0.04320987654320985,0,0,0.04320987654320985,0,0)" xlink:href="#F"/><use transform="matrix(0.04320987654320985,0,0,0.04320987654320985,11.191358024691352,0)" xlink:href="#y"/><use transform="matrix(0.04320987654320985,0,0,0.04320987654320985,19.83333333333332,0)" xlink:href="#G"/><use transform="matrix(0.04320987654320985,0,0,0.04320987654320985,28.475308641975293,0)" xlink:href="#u"/><use transform="matrix(0.04320987654320985,0,0,0.04320987654320985,37.117283950617264,0)" xlink:href="#H"/><use transform="matrix(0.04320987654320985,0,0,0.04320987654320985,44.895061728395035,0)" xlink:href="#q"/><use transform="matrix(0.04320987654320985,0,0,0.04320987654320985,48.3086419753086,0)" xlink:href="#x"/><use transform="matrix(0.04320987654320985,0,0,0.04320987654320985,52.629629629629605,0)" xlink:href="#u"/><use transform="matrix(0.04320987654320985,0,0,0.04320987654320985,61.271604938271565,0)" xlink:href="#r"/><use transform="matrix(0.04320987654320985,0,0,0.04320987654320985,66.41358024691354,0)" xlink:href="#I"/></g><path fill="#333" d="M210-169c-67 3-38 105-44 169h-31v-121c0-29-5-50-35-48C34-165 62-65 56 0H25l-1-190h30c1 10-1 24 2 32 10-44 99-50 107 0 11-21 27-35 58-36 85-2 47 119 55 194h-31v-121c0-29-5-49-35-48" id="J"/><g id="g"><use transform="matrix(0.04320987654320987,0,0,0.04320987654320987,0,0)" xlink:href="#t"/><use transform="matrix(0.04320987654320987,0,0,0.04320987654320987,11.191358024691356,0)" xlink:href="#D"/><use transform="matrix(0.04320987654320987,0,0,0.04320987654320987,19.83333333333333,0)" xlink:href="#J"/><use transform="matrix(0.04320987654320987,0,0,0.04320987654320987,32.753086419753075,0)" xlink:href="#y"/><use transform="matrix(0.04320987654320987,0,0,0.04320987654320987,41.39506172839505,0)" xlink:href="#r"/><use transform="matrix(0.04320987654320987,0,0,0.04320987654320987,46.537037037037024,0)" xlink:href="#D"/></g><path fill="#333" d="M125-24c46 0 70-25 89-51l25 16C214-24 183 4 123 4 8 4-5-146 60-208c32-50 158-61 191-5 5 7 9 14 11 22l-32 10c-9-28-33-43-69-43-74 0-108 51-108 125 0 46 24 75 72 75" id="K"/><path fill="#333" d="M165-48c-4 18 1 34 23 27l-3 20c-29 8-62 0-52-35h-2C116-14 99 4 63 4 30 4 8-16 8-49c0-68 71-67 138-67 10-26 0-56-31-54-26 1-42 9-47 31l-32-5c8-67 160-71 144 15-5 28-9 54-15 81zM42-50c3 52 80 24 89-6 7-12 7-24 11-38-47 1-103-4-100 44" id="L"/><path fill="#333" d="M67-162c32-53 139-36 121 50C175-51 163 2 97 4 68 4 52-11 42-31 38 6 28 39 22 75H-9l50-265h29c-1 10 0 20-3 28zm89 36c0-26-10-43-35-43-54 0-67 50-69 103-1 29 14 45 42 46 53 0 62-58 62-106" id="M"/><path fill="#333" d="M51-54c-9 22 5 41 31 30L79-1C43 14 10-4 19-52l22-115H19l5-23h22l19-43h21l-9 43h35l-4 23H73" id="N"/><path fill="#333" d="M67 3c-93-2-31-127-26-193h32L48-50c-3 39 53 32 70 12 30-34 30-101 43-152h32L157 0h-30c1-10 6-24 4-33-14 20-29 37-64 36" id="O"/><path fill="#333" d="M66-151c12-25 30-51 66-40l-6 26C45-176 58-65 38 0H6l36-190h30" id="P"/><path fill="#333" d="M111-194c62-3 86 47 72 106H45c-7 38 6 69 45 68 27-1 43-14 53-32l24 11C152-15 129 4 87 4 38 3 12-23 12-71c0-70 32-119 99-123zm44 81c14-66-71-72-95-28-4 8-8 17-11 28h106" id="Q"/><g id="h"><use transform="matrix(0.043209876543209846,0,0,0.043209876543209846,0,0)" xlink:href="#K"/><use transform="matrix(0.043209876543209846,0,0,0.043209876543209846,11.19135802469135,0)" xlink:href="#L"/><use transform="matrix(0.043209876543209846,0,0,0.043209876543209846,19.83333333333332,0)" xlink:href="#M"/><use transform="matrix(0.043209876543209846,0,0,0.043209876543209846,28.47530864197529,0)" xlink:href="#N"/><use transform="matrix(0.043209876543209846,0,0,0.043209876543209846,32.796296296296276,0)" xlink:href="#O"/><use transform="matrix(0.043209876543209846,0,0,0.043209876543209846,41.438271604938244,0)" xlink:href="#P"/><use transform="matrix(0.043209876543209846,0,0,0.043209876543209846,46.58024691358021,0)" xlink:href="#Q"/></g><path fill="#333" d="M50-231l6-30h32l-6 30H50zM6 0l37-190h31L37 0H6" id="R"/><path fill="#333" d="M248-111c6-24 9-61-24-58-72 9-57 108-77 169h-31l26-142c3-37-50-30-64-10C52-115 50-51 37 0H6l36-190h30c-1 10-6 24-4 32 13-43 101-52 105 5 13-22 29-41 61-41 90 0 28 129 23 194h-31" id="S"/><path fill="#333" d="M103-194c29 0 47 14 56 36 2-11 5-23 8-32h30L160-5C157 61 82 97 21 62 9 55 4 45 1 30l28-7c7 42 83 31 92-3 4-16 9-38 13-55-13 20-29 36-62 36-40 0-60-25-60-64 0-71 23-131 91-131zm4 24c-53 0-58 54-61 104-2 27 10 44 36 44 49 0 65-50 67-102 1-29-15-46-42-46" id="T"/><path fill="#333" d="M55-144c13 50 104 24 104 88C159 21 15 23 1-39l26-10c6 40 102 42 102-4-13-50-104-23-104-87 0-71 143-71 148-8l-29 4c-5-35-85-37-89 0" id="U"/><g id="i"><use transform="matrix(0.043209876543209846,0,0,0.043209876543209846,0,0)" xlink:href="#R"/><use transform="matrix(0.043209876543209846,0,0,0.043209876543209846,3.413580246913578,0)" xlink:href="#S"/><use transform="matrix(0.043209876543209846,0,0,0.043209876543209846,16.33333333333332,0)" xlink:href="#L"/><use transform="matrix(0.043209876543209846,0,0,0.043209876543209846,24.975308641975293,0)" xlink:href="#T"/><use transform="matrix(0.043209876543209846,0,0,0.043209876543209846,33.61728395061726,0)" xlink:href="#Q"/><use transform="matrix(0.043209876543209846,0,0,0.043209876543209846,42.259259259259224,0)" xlink:href="#U"/></g><path fill="#333" d="M238-179c0 84-86 86-175 82L45 0H11l48-248c82 0 179-12 179 69zm-34 1c0-53-64-42-116-43l-19 98c63 0 135 9 135-55" id="V"/><path fill="#333" d="M68-162c25-46 127-43 121 31C183-60 169 1 98 4 69 5 53-11 43-31L36 0H5l52-261h31zm88 36c2-27-9-43-34-43-55 0-70 51-70 103 0 29 15 45 43 46 52 0 58-58 61-106" id="W"/><path fill="#333" d="M6 0l50-261h32L37 0H6" id="X"/><path fill="#333" d="M67-158c15-20 31-36 64-36 94 0 33 127 27 194h-32l25-140c3-38-53-32-70-12C52-117 51-51 37 0H6l51-261h31" id="Y"/><g id="j"><use transform="matrix(0.043209876543209846,0,0,0.043209876543209846,0,0)" xlink:href="#V"/><use transform="matrix(0.043209876543209846,0,0,0.043209876543209846,10.370370370370363,0)" xlink:href="#O"/><use transform="matrix(0.043209876543209846,0,0,0.043209876543209846,19.012345679012334,0)" xlink:href="#W"/><use transform="matrix(0.043209876543209846,0,0,0.043209876543209846,27.6543209876543,0)" xlink:href="#X"/><use transform="matrix(0.043209876543209846,0,0,0.043209876543209846,31.06790123456788,0)" xlink:href="#R"/><use transform="matrix(0.043209876543209846,0,0,0.043209876543209846,34.48148148148146,0)" xlink:href="#U"/><use transform="matrix(0.043209876543209846,0,0,0.043209876543209846,42.25925925925923,0)" xlink:href="#Y"/></g><path fill="#333" d="M133-28C103 26-5 8 13-77c13-62 24-115 90-117 29-1 46 15 56 35l19-102h32L160 0h-30zM45-64c-2 27 10 43 35 43 54-1 69-50 69-103 0-29-15-46-42-46-53-1-58 58-62 106" id="Z"/><g id="k"><use transform="matrix(0.043209876543209846,0,0,0.043209876543209846,0,0)" xlink:href="#W"/><use transform="matrix(0.043209876543209846,0,0,0.043209876543209846,8.64197530864197,0)" xlink:href="#R"/><use transform="matrix(0.043209876543209846,0,0,0.043209876543209846,12.055555555555546,0)" xlink:href="#P"/><use transform="matrix(0.043209876543209846,0,0,0.043209876543209846,17.197530864197518,0)" xlink:href="#Z"/></g><path fill="#333" d="M44-68c0 29 11 47 38 47 30 0 42-19 51-41l28 9C148-21 126 4 82 4 31 4 10-29 12-85c3-77 74-140 146-93 12 8 15 23 18 40l-31 5c-1-22-13-36-36-36-52 0-65 49-65 101" id="aa"/><path fill="#333" d="M30-147c31-64 166-65 159 27C183-49 158 1 86 4 9 8 1-88 30-147zM88-20c53 0 68-48 68-100 0-31-11-51-44-50-52 1-68 46-68 97 0 32 13 53 44 53" id="ab"/><path fill="#333" d="M67-158c22-48 132-52 116 29L158 0h-32l25-140c3-38-53-32-70-12C52-117 51-52 38 0H6l36-190h30" id="ac"/><g id="l"><use transform="matrix(0.043209876543209846,0,0,0.043209876543209846,0,0)" xlink:href="#aa"/><use transform="matrix(0.043209876543209846,0,0,0.043209876543209846,7.777777777777772,0)" xlink:href="#ab"/><use transform="matrix(0.043209876543209846,0,0,0.043209876543209846,16.419753086419743,0)" xlink:href="#O"/><use transform="matrix(0.043209876543209846,0,0,0.043209876543209846,25.061728395061717,0)" xlink:href="#ac"/><use transform="matrix(0.043209876543209846,0,0,0.043209876543209846,33.70370370370368,0)" xlink:href="#N"/></g><path fill="#333" d="M187 0l-14-72H61L19 0h-37l149-248h38L221 0h-34zm-19-99l-22-123L76-99h92" id="ad"/><path fill="#333" d="M198-190L69 30C53 58 25 83-20 72c4-11-1-27 19-22 33-1 43-29 59-52L20-190h32L79-34l84-156h35" id="ae"/><g id="m"><use transform="matrix(0.043209876543209846,0,0,0.043209876543209846,0,0)" xlink:href="#ad"/><use transform="matrix(0.043209876543209846,0,0,0.043209876543209846,10.370370370370363,0)" xlink:href="#M"/><use transform="matrix(0.043209876543209846,0,0,0.043209876543209846,19.012345679012334,0)" xlink:href="#M"/><use transform="matrix(0.043209876543209846,0,0,0.043209876543209846,27.6543209876543,0)" xlink:href="#X"/><use transform="matrix(0.043209876543209846,0,0,0.043209876543209846,31.06790123456788,0)" xlink:href="#ae"/></g><path fill="#333" d="M14 0l48-248h34L48 0H14" id="af"/><path fill="#333" d="M-20 4l123-265h28L8 4h-28" id="ag"/><path fill="#333" d="M222 0l43-216c-8 16-17 34-26 49L143 0h-22L81-216 41 0H11l48-248h42l38 208 116-208h45L252 0h-30" id="ah"/><path fill="#333" d="M11 0l48-248h34L50-27h125l-5 27H11" id="ai"/><g id="n"><use transform="matrix(0.043209876543209846,0,0,0.043209876543209846,0,0)" xlink:href="#ad"/><use transform="matrix(0.043209876543209846,0,0,0.043209876543209846,10.370370370370363,0)" xlink:href="#af"/><use transform="matrix(0.043209876543209846,0,0,0.043209876543209846,14.691358024691347,0)" xlink:href="#ag"/><use transform="matrix(0.043209876543209846,0,0,0.043209876543209846,19.01234567901233,0)" xlink:href="#ah"/><use transform="matrix(0.043209876543209846,0,0,0.043209876543209846,31.932098765432073,0)" xlink:href="#ai"/></g><g id="o"><use transform="matrix(0.043209876543209846,0,0,0.043209876543209846,0,0)" xlink:href="#S"/><use transform="matrix(0.043209876543209846,0,0,0.043209876543209846,12.919753086419744,0)" xlink:href="#ab"/><use transform="matrix(0.043209876543209846,0,0,0.043209876543209846,21.561728395061714,0)" xlink:href="#Z"/><use transform="matrix(0.043209876543209846,0,0,0.043209876543209846,30.20370370370368,0)" xlink:href="#Q"/><use transform="matrix(0.043209876543209846,0,0,0.043209876543209846,38.84567901234565,0)" xlink:href="#X"/></g></defs></g></svg>